<svg xmlns="http://www.w3.org/2000/svg" xmlns:xlink="http://www.w3.org/1999/xlink" version="1.1" id="Layer_1_1_" x="0px" y="0px" viewBox="0 0 64 64" style="enable-background:new 0 0 64 64;" xml:space="preserve" width="512" height="512">
<linearGradient id="SVGID_1_" gradientUnits="userSpaceOnUse" x1="32" y1="63" x2="32" y2="1">
	<stop offset="0" style="stop-color:#9F2FFF"/>
	<stop offset="1" style="stop-color:#0BB1D3"/>
</linearGradient>
<path style="fill:url(#SVGID_1_);" d="M63,41.772c0-2.072-1.304-3.954-3.244-4.683L55,35.307V34.46  c0.757-0.679,1.34-1.545,1.675-2.528C58.559,31.609,60,29.975,60,28v-4c0-4.963-4.037-9-9-9c-4.892,0-8.876,3.925-8.989,8.79  c-0.378-0.288-0.797-0.528-1.255-0.7L36,21.307V20.46c0.757-0.679,1.34-1.545,1.675-2.528C39.559,17.609,41,15.975,41,14v-4  c0-4.963-4.037-9-9-9s-9,4.037-9,9v4c0,1.975,1.441,3.609,3.325,3.932C26.66,18.914,27.243,19.78,28,20.46v0.847l-4.756,1.783  c-0.458,0.172-0.877,0.412-1.255,0.7C21.876,18.925,17.892,15,13,15c-4.963,0-9,4.037-9,9v4c0,1.975,1.441,3.609,3.325,3.932  C7.66,32.914,8.243,33.78,9,34.46v0.847L4.244,37.09C2.304,37.818,1,39.7,1,41.772V45h16.302C17.105,45.97,17,46.973,17,48  c0,8.271,6.729,15,15,15s15-6.729,15-15c0-1.027-0.105-2.03-0.302-3H63V41.772z M47,35.307l-4.743,1.779  C39.572,34.56,35.969,33,32,33c-3.969,0-7.572,1.56-10.257,4.085L17,35.307V34.46c0.757-0.679,1.34-1.545,1.675-2.528  c0.739-0.127,1.401-0.458,1.943-0.932h22.764c0.542,0.473,1.204,0.805,1.943,0.932C45.66,32.914,46.243,33.78,47,34.46V35.307z   M22.3,39.375c1.303,1.599,2.182,3.815,2.527,6.289c-2.615,0.504-4.566,1.196-5.796,1.722C19.175,44.318,20.383,41.529,22.3,39.375z   M23.73,37.978c2.007-1.659,4.522-2.716,7.27-2.927v9.97c-1.522,0.037-2.925,0.154-4.203,0.326  C26.384,42.46,25.313,39.863,23.73,37.978z M31,47.02v13.929c-2.748-0.211-5.263-1.268-7.27-2.927C25.787,55.572,27,51.92,27,48  c0-0.22-0.02-0.435-0.028-0.654C28.194,47.176,29.538,47.059,31,47.02z M33,47.02c1.462,0.038,2.806,0.156,4.028,0.326  C37.02,47.565,37,47.78,37,48c0,3.92,1.213,7.572,3.27,10.022c-2.007,1.659-4.522,2.716-7.27,2.927V47.02z M33,45.02v-9.97  c2.748,0.211,5.263,1.268,7.27,2.927c-1.583,1.885-2.654,4.483-3.067,7.368C35.925,45.174,34.522,45.058,33,45.02z M41.7,39.375  c1.918,2.154,3.125,4.943,3.269,8.012c-1.23-0.527-3.181-1.218-5.796-1.722C39.518,43.19,40.397,40.974,41.7,39.375z M9,30v-4h8v4  c0,2.206-1.794,4-4,4S9,32.206,9,30z M19,29.722v-3.443c0.595,0.347,1,0.985,1,1.722S19.595,29.375,19,29.722z M45,26.278v3.443  c-0.595-0.347-1-0.985-1-1.722S44.405,26.625,45,26.278z M49,35.65c0.627,0.223,1.298,0.35,2,0.35s1.373-0.128,2-0.35v0.017  l-2,2.666l-2-2.666V35.65z M51,34c-2.206,0-4-1.794-4-4v-4.07c1.452-0.158,2.849-0.7,4-1.598c1.151,0.898,2.548,1.44,4,1.598V30  C55,32.206,53.206,34,51,34z M57,29.722v-3.443c0.595,0.347,1,0.985,1,1.722S57.595,29.375,57,29.722z M51,17c3.859,0,7,3.141,7,7  v0.556C57.409,24.212,56.732,24,56,24h-0.172c-1.534,0-3.036-0.622-4.121-1.707L51,21.586l-0.707,0.707  C49.208,23.378,47.706,24,46.172,24H46c-0.732,0-1.409,0.212-2,0.556V24C44,20.141,47.141,17,51,17z M32,20c-2.206,0-4-1.794-4-4  v-4.071c1.73-0.159,3.397-0.702,4.871-1.644l0.008,0.008C33.726,11.14,34.828,11.7,36,11.907V16C36,18.206,34.206,20,32,20z   M38,15.722v-3.443c0.595,0.347,1,0.985,1,1.722S38.595,15.375,38,15.722z M32,3c3.859,0,7,3.141,7,7v0.556  C38.409,10.212,37.732,10,37,10c-1.008,0-1.994-0.408-2.707-1.121l-1.166-1.166l-1.186,0.791C30.473,9.482,28.764,10,27,10  c-0.732,0-1.409,0.212-2,0.556V10C25,6.141,28.141,3,32,3z M25,14c0-0.737,0.405-1.375,1-1.722v3.443C25.405,15.375,25,14.737,25,14  z M32,22c0.702,0,1.373-0.128,2-0.35v0.017l-2,2.666l-2-2.666V21.65C30.627,21.872,31.298,22,32,22z M23.947,24.963L28.65,23.2  L32,27.667l3.35-4.467l4.703,1.763C41.218,25.399,42,26.528,42,27.772V28v1h-3v-2h-2v2H27v-2h-2v2h-3v-1v-0.228  C22,26.528,22.782,25.399,23.947,24.963z M13,17c3.859,0,7,3.141,7,7v0.556C19.409,24.212,18.732,24,18,24H8  c-0.732,0-1.409,0.212-2,0.556V24C6,20.141,9.141,17,13,17z M6,28c0-0.737,0.405-1.375,1-1.722v3.443C6.405,29.375,6,28.737,6,28z   M13,36c0.702,0,1.373-0.128,2-0.35V36c0,1.103-0.897,2-2,2s-2-0.897-2-2v-0.35C11.627,35.872,12.298,36,13,36z M8,43v-2H6v2H3  v-1.228c0-1.244,0.782-2.373,1.947-2.81l4.303-1.614C9.807,38.89,11.27,40,13,40s3.193-1.11,3.749-2.651l3.525,1.322  c-1.026,1.288-1.838,2.748-2.4,4.329H8z M19.102,49.555c0.924-0.443,2.925-1.281,5.885-1.877C24.989,47.786,25,47.891,25,48  c0,3.398-0.998,6.535-2.7,8.625C20.58,54.693,19.426,52.253,19.102,49.555z M41.7,56.625C39.998,54.535,39,51.398,39,48  c0-0.109,0.011-0.214,0.013-0.322c2.96,0.597,4.962,1.434,5.885,1.877C44.574,52.253,43.42,54.693,41.7,56.625z M61,43h-3v-2h-2v2  h-9.875c-0.561-1.581-1.373-3.042-2.399-4.329L47.65,37.2L51,41.667l3.35-4.467l4.703,1.763C60.218,39.399,61,40.528,61,41.772V43z"/>
</svg>