<svg id="Capa_1" enable-background="new 0 0 512 512" height="512" viewBox="0 0 512 512" width="512" xmlns="http://www.w3.org/2000/svg"><g><path d="m389.563 474.439c-39.523 24.218-86.126 38.01-135.981 37.55-142.743-1.318-256.129-118.002-253.538-260.728 2.526-139.198 116.155-251.261 255.956-251.261 80.367 0 152.085 37.033 199.018 94.966 1.535 1.894 1.176 4.705-.826 6.095-66.591 46.225-110.192 123.244-110.192 210.447 0 55.86 17.891 107.542 48.256 149.627 3.153 4.369 1.901 10.489-2.693 13.304z" fill="#ffcd71"/><path d="m256.513 511.827c-52.01 0-100.391-15.542-140.751-42.234h281.502c-40.36 26.693-88.741 42.234-140.751 42.234z" fill="#ffc14f"/><path d="m512 256c0 3.643-.076 7.269-.227 10.875-23.909 67.187-97.962 109.123-172.105 87.273l-51.62-15.212 79.59-270.074 87.002 25.639c35.862 44.055 57.36 100.266 57.36 161.499z" fill="#55a4f9"/><path d="m512 256c0 2.76-.044 5.51-.13 8.248-20.513 48.438-75.572 78.294-131.18 61.906l-18.061-5.323c-8.286-2.442-13.024-11.139-10.582-19.426l49.01-166.305c2.442-8.286 11.139-13.024 19.426-10.582l65.728 19.37c16.518 33.858 25.789 71.903 25.789 112.112z" fill="#1380e2"/><path d="m139.041 295.024-81.877-24.129c-10.595-3.122-16.653-14.243-13.531-24.838l68.283-231.706c3.122-10.595 14.243-16.653 24.838-13.531l42.179 12.43c21.925 6.461 34.46 29.473 27.999 51.397z" fill="#51489a"/><path d="m298.051 341.884-201.773-59.462c-10.595-3.122-16.653-14.243-13.531-24.838l68.283-231.706c3.122-10.595 14.243-16.653 24.838-13.531l201.774 59.463z" fill="#5f55af"/><path d="m282.831 190.634c-13.838 46.957-63.122 73.805-110.079 59.967s-73.805-63.122-59.967-110.08 63.122-73.805 110.079-59.967 73.805 63.123 59.967 110.08z" fill="#76b6fa"/><path d="m257.612 124.961-3.443 11.683c-.526 1.786-2.173 3.007-4.036 2.992l-56.501-.468-15.448 52.421c-.001.001-.001.003-.001.004l-.001.005s-1.263 3.367-1.99 4.195c-5.068 7.455-16.754 10.66-28.543 7.186-13.811-4.07-22.532-15.767-19.48-26.125 3.053-10.358 16.723-15.456 30.534-11.386 3.556 1.048 6.775 2.602 9.543 4.509l10.682-36.247v-.001c.001-.002.001-.004.002-.006l.093-.316c.051-.173.108-.342.169-.508 2.817-8.247 10.614-13.816 19.394-13.744l55.059.456c2.772.023 4.75 2.692 3.967 5.35z" fill="#453d83"/><path d="m257.612 124.961-3.443 11.683c0 .001-.001.002-.001.003 0 0-18.991 64.443-19.128 64.908-2.442 8.286-13.378 12.364-24.427 9.109-11.049-3.256-18.026-12.613-15.584-20.9 2.442-8.286 13.378-12.364 24.427-9.109 1.727.509 3.354 1.167 4.862 1.947l12.694-43.074-13.82-.115c-6.661-.055-11.418-6.471-9.535-12.861 1.266-4.294 5.224-7.229 9.701-7.192l30.287.251c2.772.023 4.75 2.692 3.967 5.35z" fill="#51489a"/><path d="m395.752 84.136c-3.489 11.838-15.913 18.606-27.751 15.118-11.838-3.489-18.606-15.913-15.118-27.751 3.489-11.838 15.913-18.606 27.751-15.118s18.607 15.913 15.118 27.751zm-34.068 36.552c-11.838-3.489-24.263 3.28-27.751 15.118-3.489 11.838 3.28 24.263 15.118 27.751 11.838 3.489 24.263-3.28 27.751-15.118s-3.28-24.262-15.118-27.751zm-18.95 64.303c-11.838-3.488-24.262 3.28-27.751 15.118s3.28 24.263 15.118 27.751 24.262-3.28 27.751-15.118-3.28-24.262-15.118-27.751z" fill="#ffcd71"/><path d="m278.065 193.075h226.041c5.154 20.232 7.894 41.428 7.894 63.265 0 92.456-49.11 173.441-122.668 218.292h-118.22c-17.278 0-31.284-14.006-31.284-31.284v-212.036c0-21.118 17.119-38.237 38.237-38.237z" fill="#c8e2fd"/><path d="m328.466 229.227h182.112c.94 8.909 1.422 17.955 1.422 27.113 0 71.308-29.214 135.794-76.326 182.14h-107.208c-8.639 0-15.642-7.003-15.642-15.642v-177.969c0-8.639 7.003-15.642 15.642-15.642z" fill="#86befb"/><path d="m472.173 270.939h-130.993c-4.142 0-7.5-3.358-7.5-7.5v-.642c0-4.142 3.358-7.5 7.5-7.5h130.993c4.142 0 7.5 3.358 7.5 7.5v.642c0 4.142-3.358 7.5-7.5 7.5zm-44.64 23.784v-.642c0-4.142-3.358-7.5-7.5-7.5h-78.853c-4.142 0-7.5 3.358-7.5 7.5v.642c0 4.142 3.358 7.5 7.5 7.5h78.852c4.143 0 7.501-3.357 7.501-7.5zm-52.14 114.709v-.642c0-4.142-3.358-7.5-7.5-7.5h-26.713c-4.142 0-7.5 3.358-7.5 7.5v.642c0 4.142 3.358 7.5 7.5 7.5h26.712c4.143 0 7.501-3.358 7.501-7.5zm20.856-57.354v-.642c0-4.142-3.358-7.5-7.5-7.5h-47.569c-4.142 0-7.5 3.358-7.5 7.5v.642c0 4.142 3.358 7.5 7.5 7.5h47.568c4.143 0 7.501-3.358 7.501-7.5zm31.284 57.354v-.642c0-4.142-3.358-7.5-7.5-7.5h-26.712c-4.142 0-7.5 3.358-7.5 7.5v.642c0 4.142 3.358 7.5 7.5 7.5h26.712c4.142 0 7.5-3.358 7.5-7.5z" fill="#3493f8"/><path d="m71.767 474.632h-51.766c-11.046 0-20-8.954-20-20v-241.557c0-11.046 8.954-20 20-20h51.767c11.046 0 20 8.954 20 20v241.558c-.001 11.045-8.955 19.999-20.001 19.999z" fill="#ff2ea6"/><path d="m239.018 474.632h-187.751c-11.046 0-20-8.954-20-20v-241.557c0-11.046 8.954-20 20-20h187.75c11.967 0 21.667 9.701 21.667 21.667v238.224c0 11.966-9.7 21.666-21.666 21.666z" fill="#ff50b5"/><path d="m207.501 333.854c0 48.954-39.685 88.639-88.638 88.639s-88.638-39.685-88.638-88.639 39.685-88.639 88.638-88.639 88.638 39.685 88.638 88.639z" fill="#d12898"/><path d="m164.746 277.988v12.18c0 1.863-1.235 3.499-3.025 4.011l-54.329 15.523v55.958c0 1.174-.259 2.288-.723 3.288-2.754 8.583-13.057 14.961-25.347 14.961-14.398 0-26.07-8.754-26.07-19.553s11.672-19.553 26.07-19.553c3.708 0 7.235.581 10.428 1.627v-38.125c0-.181.007-.36.019-.537.372-8.707 6.276-16.251 14.718-18.663l52.943-15.127c2.663-.762 5.316 1.239 5.316 4.01z" fill="#ffe1aa"/><path d="m164.746 277.988v79.85c0 8.639-9.338 15.642-20.856 15.642s-20.856-7.003-20.856-15.642 9.338-15.642 20.856-15.642c1.8 0 3.547.171 5.214.493v-44.905l-13.289 3.797c-6.405 1.83-12.781-2.979-12.781-9.641 0-4.477 2.968-8.411 7.272-9.641l29.123-8.321c2.664-.762 5.317 1.239 5.317 4.01z" fill="#fff5f5"/><path d="m259.194 445.583c-12.341 0-22.346 10.005-22.346 22.346 0 2.336.359 4.587 1.023 6.704h42.645c.665-2.116 1.023-4.368 1.023-6.704.001-12.342-10.003-22.346-22.345-22.346z" fill="#ffc14f"/><path d="m281.54 333.854c0 12.341-10.005 22.346-22.346 22.346s-22.346-10.004-22.346-22.346 10.005-22.346 22.346-22.346c12.342 0 22.346 10.004 22.346 22.346zm-22.346-111.73c12.341 0 22.346-10.005 22.346-22.346 0-2.336-.359-4.587-1.023-6.704h-42.645c-.665 2.116-1.023 4.368-1.023 6.704-.001 12.342 10.004 22.346 22.345 22.346zm0 156.421c-12.341 0-22.346 10.005-22.346 22.346s10.005 22.346 22.346 22.346 22.346-10.005 22.346-22.346-10.004-22.346-22.346-22.346zm0-134.075c-12.341 0-22.346 10.005-22.346 22.346s10.005 22.346 22.346 22.346 22.346-10.005 22.346-22.346-10.004-22.346-22.346-22.346z" fill="#ffcd71"/></g></svg>