<?xml version="1.0" encoding="iso-8859-1"?>
<!-- Generator: Adobe Illustrator 19.0.0, SVG Export Plug-In . SVG Version: 6.00 Build 0)  -->
<svg version="1.1" id="Layer_1" xmlns="http://www.w3.org/2000/svg" xmlns:xlink="http://www.w3.org/1999/xlink" x="0px" y="0px"
	 viewBox="0 0 512 512" style="enable-background:new 0 0 512 512;" xml:space="preserve">
<g>
	<g>
		<path style="fill:#BDC3C7;" d="M45.714,274.286h420.571V128H45.714V274.286z M475.429,292.571H36.571
			c-5.056,0-9.143-4.096-9.143-9.143V118.857c0-5.047,4.087-9.143,9.143-9.143h438.857c5.056,0,9.143,4.096,9.143,9.143v164.571
			C484.571,288.475,480.485,292.571,475.429,292.571L475.429,292.571z"/>
		<polygon style="fill:#BDC3C7;" points="82.286,283.429 100.571,283.429 100.571,118.857 82.286,118.857 		"/>
		<polygon style="fill:#BDC3C7;" points="137.143,283.429 155.429,283.429 155.429,118.857 137.143,118.857 		"/>
		<polygon style="fill:#BDC3C7;" points="192,283.429 210.286,283.429 210.286,118.857 192,118.857 		"/>
		<polygon style="fill:#BDC3C7;" points="246.857,283.429 265.143,283.429 265.143,118.857 246.857,118.857 		"/>
		<polygon style="fill:#BDC3C7;" points="301.714,283.429 320,283.429 320,118.857 301.714,118.857 		"/>
		<polygon style="fill:#BDC3C7;" points="356.571,283.429 374.857,283.429 374.857,118.857 356.571,118.857 		"/>
		<polygon style="fill:#BDC3C7;" points="411.429,283.429 429.714,283.429 429.714,118.857 411.429,118.857 		"/>
		<polygon style="fill:#BDC3C7;" points="36.571,182.857 475.429,182.857 475.429,164.571 36.571,164.571 		"/>
		<polygon style="fill:#BDC3C7;" points="36.571,237.714 475.429,237.714 475.429,219.429 36.571,219.429 		"/>
	</g>
	<g>
		<polygon style="fill:#7F8C8D;" points="0,429.714 45.714,429.714 45.714,82.286 0,82.286 		"/>
		<polygon style="fill:#7F8C8D;" points="466.286,429.714 512,429.714 512,82.286 466.286,82.286 		"/>
	</g>
</g>
<g>
</g>
<g>
</g>
<g>
</g>
<g>
</g>
<g>
</g>
<g>
</g>
<g>
</g>
<g>
</g>
<g>
</g>
<g>
</g>
<g>
</g>
<g>
</g>
<g>
</g>
<g>
</g>
<g>
</g>
</svg>
