<svg id="Capa_1" enable-background="new 0 0 512 512" height="512" viewBox="0 0 512 512" width="512" xmlns="http://www.w3.org/2000/svg"><g><path d="m402.44 360.13v33.07l-146.44 118.8-146.44-118.8v-33.07h49.57v-74.15h193.74v74.15z" fill="#bde953"/><path d="m402.44 360.13v33.07l-146.44 118.8v-226.02h96.87v74.15z" fill="#00cd72"/><path d="m417.45 161.45c0 89.16-72.29 161.44-161.45 161.44s-161.45-72.28-161.45-161.44c0-89.17 72.29-161.45 161.45-161.45s161.45 72.28 161.45 161.45z" fill="#fe0"/><path d="m417.45 161.45c0 89.16-72.29 161.44-161.45 161.44v-322.89c89.16 0 161.45 72.28 161.45 161.45z" fill="#fc0"/><path d="m310.81 192.68c0 23.31-17.35 42.64-39.81 45.78v21.39h-30v-21.36c-22.3-3-39.56-22.15-39.56-45.26h30c0 8.65 7.03 15.68 15.68 15.68h17.46c8.95 0 16.23-7.28 16.23-16.23s-7.28-16.23-16.23-16.23h-17.16c-25.49 0-46.23-20.74-46.23-46.24 0-23.31 17.35-42.64 39.81-45.77v-21.4h30v21.45c22.28 3.3 39.44 22.55 39.44 45.74h-30c0-8.96-7.29-16.25-16.26-16.25h-16.76c-8.95 0-16.23 7.28-16.23 16.23s7.28 16.24 16.23 16.24h17.16c25.49 0 46.23 20.74 46.23 46.23z" fill="#fc0"/><g fill="#ff9e00"><path d="m310.81 192.68c0 23.31-17.35 42.64-39.81 45.78v21.39h-15v-50.94h8.58c8.95 0 16.23-7.28 16.23-16.23s-7.28-16.23-16.23-16.23h-8.58v-30h8.58c25.49 0 46.23 20.74 46.23 46.23z"/><path d="m264.18 113.98h-8.18v-50.94h15v21.45c22.28 3.3 39.44 22.55 39.44 45.74h-30c0-8.96-7.29-16.25-16.26-16.25z"/></g></g></svg>