<svg id="Capa_1" enable-background="new 0 0 512 512" height="512" viewBox="0 0 512 512" width="512" xmlns="http://www.w3.org/2000/svg"><g><g><g><path d="m150.115 423.858c-1.981 0-3.963-.756-5.475-2.267-3.023-3.024-3.023-7.926 0-10.95l85.633-85.634c3.024-3.022 7.926-3.022 10.95 0 3.023 3.024 3.023 7.926 0 10.95l-85.633 85.634c-1.513 1.511-3.495 2.267-5.475 2.267z" fill="#b1e4f9"/></g><g><path d="m95.723 369.466c-1.982 0-3.963-.756-5.475-2.267-3.023-3.024-3.023-7.926 0-10.95l85.634-85.634c3.025-3.023 7.927-3.021 10.95 0 3.023 3.024 3.023 7.926 0 10.95l-85.634 85.633c-1.512 1.512-3.494 2.268-5.475 2.268z" fill="#b1e4f9"/></g><g><path d="m71.212 343.923c-1.981 0-3.963-.756-5.475-2.267-3.023-3.024-3.023-7.926 0-10.95l85.634-85.634c3.024-3.022 7.926-3.022 10.95 0 3.023 3.024 3.023 7.926 0 10.95l-85.634 85.634c-1.512 1.511-3.494 2.267-5.475 2.267z" fill="#b1e4f9"/></g><g><path d="m175.658 448.368c-1.981 0-3.963-.756-5.475-2.267-3.023-3.024-3.023-7.926 0-10.95l85.634-85.634c3.024-3.022 7.926-3.022 10.95 0 3.023 3.024 3.023 7.926 0 10.95l-85.635 85.635c-1.512 1.51-3.493 2.266-5.474 2.266z" fill="#b1e4f9"/></g><g><path d="m122.918 396.662c-1.981 0-3.963-.756-5.475-2.267-3.023-3.024-3.023-7.926 0-10.95l85.634-85.634c3.024-3.022 7.926-3.022 10.95 0 3.023 3.024 3.023 7.926 0 10.95l-85.634 85.634c-1.512 1.511-3.494 2.267-5.475 2.267z" fill="#b1e4f9"/></g></g><g><path d="m209.069 374.255 262.631-147.633 33.924 14.722c4.282 1.858 6.784 6.359 6.103 10.976l-4.953 33.571c-.547 3.704-3.056 6.822-6.558 8.148l-269.391 101.972z" fill="#b1e4f9"/></g><g><path d="m185.759 350.944 236.213-192.7 42.485 13.277c4.31 1.347 7.244 5.338 7.244 9.853v45.248l-262.632 147.633z" fill="#d3effb"/></g><g><path d="m137.584 302.769 147.633-262.631-14.722-33.924c-1.858-4.282-6.359-6.784-10.976-6.103l-33.571 4.953c-3.704.547-6.822 3.056-8.148 6.558l-101.973 269.391z" fill="#b1e4f9"/></g><g><path d="m160.894 326.08 192.7-236.213-13.277-42.485c-1.347-4.31-5.338-7.244-9.853-7.244h-45.248l-147.632 262.631z" fill="#d3effb"/></g><g><path d="m211.093 440.61-17.559 17.559-23.701 1.166-1.166 23.701c-38.804 38.793-101.815 38.618-140.391-.537-37.988-38.556-37.162-100.71.568-139.338l19.903-6.978 4.924-17.879 17.559-17.559c4.036-4.036 10.571-4.036 14.607 0l125.258 125.258c4.034 4.037 4.034 10.571-.002 14.607z" fill="#f4fbff"/></g><g><path d="m211.094 426.008-15.234-15.234-49.729 49.729c-34.786 34.786-89.035 38.234-127.688 10.359 3.039 4.214 6.444 8.246 10.228 12.044 38.202 38.344 101.382 37.849 139.995.088l1.163-23.657 23.699-1.166 17.565-17.565c4.032-4.03 4.032-10.566.001-14.598z" fill="#d3effb"/></g><g><path d="m12.267 383.091h197.796v35.164h-197.796z" fill="#df75a5" transform="matrix(.707 .707 -.707 .707 315.878 38.749)"/></g><g><path d="m152.248 443.404h35.164v31.867h-35.164z" fill="#dd5790" transform="matrix(.707 -.707 .707 .707 -275.059 254.625)"/></g><g><path d="m173.326 338.512-12.432-12.432 192.7-236.213 50.583 9.57c4.172.789 7.435 4.052 8.224 8.224l9.57 50.583-236.213 192.7z" fill="#f4fbff"/></g></g></svg>