<svg height="512pt" viewBox="-4 0 512 512.00086" width="512pt" xmlns="http://www.w3.org/2000/svg"><path d="m182.238281 327.417969c-55.625 24.472656-97.105469 80.96875-121.492187 184.582031h-43.304688c-9.632812 0-17.441406-7.808594-17.441406-17.441406v-138.414063c0-5.949219 3.046875-11.484375 8.070312-14.667969 28.800782-18.488281 62.195313-28.554687 96.414063-29.070312 21.921875.25 43.507813 5.410156 63.175781 15.101562 4.636719 2.097657 9.964844 2.066407 14.578125-.089843zm0 0" fill="#f5a585"/><path d="m500.023438 408.992188c-15.53125 27.421874-71.851563 103.007812-221.460938 103.007812-33.757812.078125-67.320312-5.164062-99.449219-15.535156-3.132812-1.050782-6.59375-.246094-8.9375 2.085937l-5.816406 5.8125c-4.917969 4.875-11.558594 7.617188-18.480469 7.636719h-85.132812c24.386718-103.613281 65.867187-160.109375 121.492187-184.582031.085938 0 .171875-.085938.261719-.085938 2.601562-1.214843 5.292969-2.253906 7.980469-3.296875.421875-.089844.832031-.238281 1.214843-.433594 5.832032-2.105468 11.769532-3.902343 17.792969-5.378906l1.214844-.261718c2.863281-.695313 5.726563-1.300782 8.589844-1.910157.261719 0 .433593-.085937.605469-.085937 2.691406-.519532 5.46875-.953125 8.160156-1.300782 1.039062-.175781 2.167968-.347656 3.210937-.433593 2.082031-.347657 4.25-.523438 6.421875-.78125l2.863282-.261719c3.035156-.261719 6.160156-.433594 9.285156-.519531 3.46875-.175781 6.941406-.261719 10.5-.261719 4.933594.011719 9.859375.332031 14.753906.957031 1.90625.171875 3.816406.433594 5.726562.777344 1.996094.261719 4.078126.609375 6.160157 1.042969 3.730469.695312 7.636719 1.648437 11.714843 2.691406 2.171876.605469 4.425782 1.214844 6.769532 1.90625.367187.128906.742187.21875 1.128906.261719.222656.089843.457031.148437.695312.175781 5.75.976562 11.609376-1 15.59375-5.261719 3.980469-4.261719 5.554688-10.242187 4.191407-15.914062-3.09375-12.679688-4.78125-25.65625-5.035157-38.703125 0-42.4375 16.664063-93.203125-23.34375-135.984375-1.980468-2.105469-4.457031-3.6875-7.203124-4.597657-18.355469-5.242187-37.414063-7.582031-56.492188-6.945312-24.734375 0-40.960938-19.609375-50.507812-36.53125-6.992188-12.34375-7.320313-27.375-.867188-40.007812 9.136719-16.996094 26.871094-27.597657 46.167969-27.59375h6.855469c10.289062-.019532 20.351562 3.03125 28.898437 8.761718l60.050781 39.921875c20.136719 13.347657 36.820313 31.28125 48.683594 52.328125 6.335938 11.105469 13.015625 22.5625 17.441406 29.15625 17.355469 26.035156 69.597656 86.78125 87.042969 156.203125l23.777344 94.851563c1.625 6.449218.722656 13.28125-2.519531 19.089844zm0 0" fill="#fedebb"/><path d="m433.898438 52.066406c-4.792969 0-8.675782-3.882812-8.675782-8.675781v-34.710937c0-4.792969 3.882813-8.679688 8.675782-8.679688 4.792968 0 8.679687 3.886719 8.679687 8.679688v34.710937c0 4.792969-3.886719 8.675781-8.679687 8.675781zm0 0" fill="#f6ab27"/><path d="m451.253906 34.710938h-34.710937c-4.792969 0-8.679688-3.882813-8.679688-8.675782 0-4.792968 3.886719-8.679687 8.679688-8.679687h34.710937c4.792969 0 8.679688 3.886719 8.679688 8.679687 0 4.792969-3.886719 8.675782-8.679688 8.675782zm0 0" fill="#f6ab27"/><path d="m138.847656 216.949219c-4.792968 0-8.679687-3.886719-8.679687-8.679688v-34.710937c0-4.792969 3.886719-8.675782 8.679687-8.675782 4.792969 0 8.679688 3.882813 8.679688 8.675782v34.710937c0 4.792969-3.886719 8.679688-8.679688 8.679688zm0 0" fill="#d77eb0"/><path d="m156.203125 199.59375h-34.710937c-4.792969 0-8.679688-3.886719-8.679688-8.679688 0-4.792968 3.886719-8.675781 8.679688-8.675781h34.710937c4.792969 0 8.679687 3.882813 8.679687 8.675781 0 4.792969-3.886718 8.679688-8.679687 8.679688zm0 0" fill="#d77eb0"/><path d="m373.152344 361.175781c-1.730469 0-3.421875-.519531-4.859375-1.484375-19.480469-13.417968-40.824219-23.910156-63.347657-31.136718-.371093-.074219-.738281-.171876-1.09375-.292969-2.359374-.765625-4.84375-1.390625-7.152343-1.953125-4.09375-1.128906-7.808594-1.945313-11.28125-2.601563-2.039063-.425781-3.90625-.730469-5.691407-.964843-2.09375-.375-3.742187-.597657-5.398437-.746094-7.972656-.953125-16.015625-1.179688-24.027344-.675782-3.144531.09375-6.078125.257813-8.984375.503907l-2.800781.257812c-2.03125.164063-3.949219.390625-5.789063.695313-1.519531.15625-2.421874.304687-3.253906.441406-2.898437.367188-5.398437.773438-7.90625 1.257812-.183594 0-.382812.070313-.574218.089844l-.320313.050782c-2.601563.46875-5.09375 1.007812-7.652344 1.734374-.140625.042969-.867187.199219-.992187.234376l-.867188.183593c-5.433594 1.300781-10.789062 2.921875-16.035156 4.851563-.636719.292968-1.296875.535156-1.96875.726562-2.34375.867188-4.671875 1.816406-6.945312 2.875-.363282.171875-.742188.316406-1.125.433594-2.660157.859375-5.566407.410156-7.839844-1.214844-2.273438-1.621094-3.640625-4.230468-3.6875-7.023437 0-3.667969 2.308594-6.941407 5.761718-8.171875 2.605469-1.207032 5.320313-2.257813 8.039063-3.308594.265625-.101562.535156-.191406.824219-.277344l.433594-.171875c6.136718-2.28125 12.414062-4.179687 18.785156-5.683593l.992187-.191407c3.113281-.867187 6.140625-1.527343 9.363281-2.09375.191407 0 .390626-.058593.582032-.078125 2.828125-.546875 5.65625-.996094 8.570312-1.359375.949219-.167969 2.300782-.367187 3.550782-.480469 1.621093-.292968 4.042968-.578124 6.464843-.769531l2.742188-.261719c3.28125-.277343 6.566406-.460937 9.859375-.554687 8.863281-.527344 17.753906-.273437 26.570312.761719 1.875.167968 4.035156.460937 6.207032.871094 1.734374.214843 4.070312.605468 6.367187 1.082031 3.792969.703125 7.933594 1.625 12.273437 2.820312 2.382813.574219 5.207032 1.300781 8.050782 2.214844.269531.058594.53125.128906.789062.207031 24.238282 7.722656 47.207032 18.972656 68.167969 33.382813 3.105469 2.144531 4.472656 6.050781 3.375 9.664062s-4.402344 6.101563-8.175781 6.15625zm0 0" fill="#f5a585"/></svg>