<svg id="Capa_1" enable-background="new 0 0 512 512" height="512" viewBox="0 0 512 512" width="512" xmlns="http://www.w3.org/2000/svg" xmlns:xlink="http://www.w3.org/1999/xlink"><linearGradient id="SVGID_1_" gradientUnits="userSpaceOnUse" x1="256" x2="256" y1="421" y2="61"><stop offset="0" stop-color="#fd3a84"/><stop offset="1" stop-color="#ffa68d"/></linearGradient><linearGradient id="SVGID_2_" gradientUnits="userSpaceOnUse" x1="256" x2="256" y1="451" y2="151"><stop offset="0" stop-color="#ffc2cc"/><stop offset="1" stop-color="#fff2f4"/></linearGradient><g><g><g><path d="m467 61h-422c-8.284 0-15 6.716-15 15v330c0 8.284 6.716 15 15 15h422c8.284 0 15-6.716 15-15v-330c0-8.284-6.716-15-15-15z" fill="url(#SVGID_1_)"/></g></g><g><g><path d="m218.922 299.225c4.87 2.606 10.788 2.329 15.398-.744l90-60c4.173-2.782 6.68-7.465 6.68-12.481s-2.506-9.699-6.68-12.481l-90-60c-4.603-3.068-10.52-3.355-15.398-.744-4.877 2.61-7.922 7.693-7.922 13.225v120c0 5.532 3.045 10.615 7.922 13.225zm278.078 91.775h-482c-8.284 0-15 6.716-15 15 0 24.853 20.147 45 45 45h422c24.853 0 45-20.147 45-45 0-8.284-6.716-15-15-15z" fill="url(#SVGID_2_)"/></g></g></g></svg>